<?xml version="1.0" encoding="UTF-8" standalone="no"?>
<!-- Created with Inkscape (http://www.inkscape.org/) -->

<svg
   width="210mm"
   height="297mm"
   viewBox="0 0 210 297"
   version="1.1"
   id="svg5"
   inkscape:version="1.1.1 (3bf5ae0d25, 2021-09-20)"
   sodipodi:docname="example.svg"
   xmlns:inkscape="http://www.inkscape.org/namespaces/inkscape"
   xmlns:sodipodi="http://sodipodi.sourceforge.net/DTD/sodipodi-0.dtd"
   xmlns="http://www.w3.org/2000/svg"
   xmlns:svg="http://www.w3.org/2000/svg">
  <sodipodi:namedview
     id="namedview7"
     pagecolor="#ffffff"
     bordercolor="#666666"
     borderopacity="1.0"
     inkscape:pageshadow="2"
     inkscape:pageopacity="0.0"
     inkscape:pagecheckerboard="0"
     inkscape:document-units="mm"
     showgrid="false"
     inkscape:zoom="0.68111408"
     inkscape:cx="858.88695"
     inkscape:cy="416.22983"
     inkscape:window-width="1920"
     inkscape:window-height="1017"
     inkscape:window-x="-8"
     inkscape:window-y="-8"
     inkscape:window-maximized="1"
     inkscape:current-layer="layer1" />
  <defs
     id="defs2">
    <rect
       x="1156.9281"
       y="759.05052"
       width="372.91844"
       height="152.69101"
       id="rect25657" />
  </defs>
  <g
     inkscape:label="Camada 1"
     inkscape:groupmode="layer"
     id="layer1">
    <path
       id="rect3975"
       style="opacity:1;fill:none;fill-opacity:1;stroke:#000000;stroke-width:0.765;stroke-miterlimit:4;stroke-dasharray:none"
       d="m 76.210617,106.82181 a 3.6767124,3.545401 0 0 1 0.04703,0.55707 3.6767124,3.545401 0 0 1 -3.676777,3.54552 3.6767124,3.545401 0 0 1 -0.18552,-0.0139 v 25.96896 a 3.6767124,3.545401 0 0 1 0.18552,-0.007 3.6767124,3.545401 0 0 1 3.676777,3.54501 3.6767124,3.545401 0 0 1 -0.04703,0.55707 h 28.563633 a 3.6767124,3.545401 0 0 1 -0.047,-0.55707 3.6767124,3.545401 0 0 1 3.67679,-3.54501 v -26.13358 a 3.6767124,3.545401 0 0 1 -3.67679,-3.54552 3.6767124,3.545401 0 0 1 0.0227,-0.37155 z" />
    <path
       id="rect3975-1"
       style="fill:none;fill-opacity:1;stroke:#000000;stroke-width:0.765;stroke-miterlimit:4;stroke-dasharray:none"
       d="m 112.06063,106.82181 a 3.6767124,3.545401 0 0 1 0.0202,0.37155 3.6767124,3.545401 0 0 1 -3.67677,3.54552 v 26.13381 a 3.6767124,3.545401 0 0 1 3.67677,3.54501 3.6767124,3.545401 0 0 1 -0.0465,0.55707 h 28.72487 a 3.6767124,3.545401 0 0 1 -0.0227,-0.37104 3.6767124,3.545401 0 0 1 3.67677,-3.54552 V 111.0815 a 3.6767124,3.545401 0 0 1 -0.37155,0.0284 3.6767124,3.545401 0 0 1 -3.67678,-3.54552 3.6767124,3.545401 0 0 1 0.0925,-0.74259 z" />
    <ellipse
       style="fill:#b25bd8;fill-opacity:1;stroke:#000000;stroke-width:0.765;stroke-miterlimit:4;stroke-dasharray:none"
       id="path846-1-2-7"
       cx="72.580849"
       cy="107.19324"
       rx="3.6767125"
       ry="3.5454011" />
    <ellipse
       style="fill:none;fill-opacity:1;stroke:#000000;stroke-width:0.765;stroke-miterlimit:4;stroke-dasharray:none"
       id="path846-1-2-5"
       cx="144.41299"
       cy="140.78915"
       rx="3.6767125"
       ry="3.5454011" />
    <ellipse
       style="fill:none;fill-opacity:1;stroke:#000000;stroke-width:0.765;stroke-miterlimit:4;stroke-dasharray:none"
       id="path846-1-2-72"
       cx="144.04176"
       cy="107.56448"
       rx="3.6767125"
       ry="3.5454011" />
    <ellipse
       style="fill:none;fill-opacity:1;stroke:#000000;stroke-width:0.765;stroke-miterlimit:4;stroke-dasharray:none"
       id="path846-1-2-0"
       cx="108.40412"
       cy="107.19324"
       rx="3.6767125"
       ry="3.5454011" />
    <ellipse
       style="fill:none;fill-opacity:1;stroke:#000000;stroke-width:0.765;stroke-miterlimit:4;stroke-dasharray:none"
       id="path846-1-2-01"
       cx="108.40412"
       cy="140.41794"
       rx="3.6767125"
       ry="3.5454011" />
    <ellipse
       style="fill:none;fill-opacity:1;stroke:#000000;stroke-width:0.765;stroke-miterlimit:4;stroke-dasharray:none"
       id="path846-1-2-1"
       cx="72.395241"
       cy="140.41792"
       rx="3.6767125"
       ry="3.5454011" />
    <path
       id="rect3975-4"
       style="fill:none;fill-opacity:1;stroke:#000000;stroke-width:0.765;stroke-miterlimit:4;stroke-dasharray:none"
       d="m 4.0749507,61.632264 a 3.6767124,3.545401 0 0 1 0.04703,0.55707 3.6767124,3.545401 0 0 1 -3.67677701,3.54553 3.6767124,3.545401 0 0 1 -0.185521,-0.0139 v 25.968961 a 3.6767124,3.545401 0 0 1 0.185521,-0.007 3.6767124,3.545401 0 0 1 3.67677701,3.545 3.6767124,3.545401 0 0 1 -0.04703,0.55707 H 32.638584 a 3.6767124,3.545401 0 0 1 -0.04703,-0.55707 3.6767124,3.545401 0 0 1 3.676779,-3.545 V 65.549104 a 3.6767124,3.545401 0 0 1 -3.676779,-3.54552 3.6767124,3.545401 0 0 1 0.02273,-0.37155 z" />
    <path
       id="rect3975-1-6"
       style="fill:none;fill-opacity:1;stroke:#000000;stroke-width:0.765;stroke-miterlimit:4;stroke-dasharray:none"
       d="m 39.92496,61.632264 a 3.6767124,3.545401 0 0 1 0.0202,0.37155 3.6767124,3.545401 0 0 1 -3.676776,3.54552 v 26.133811 a 3.6767124,3.545401 0 0 1 3.676776,3.545 3.6767124,3.545401 0 0 1 -0.0465,0.55708 h 28.724877 a 3.6767124,3.545401 0 0 1 -0.0227,-0.37104 3.6767124,3.545401 0 0 1 3.676772,-3.54552 V 65.891954 a 3.6767124,3.545401 0 0 1 -0.37155,0.0284 3.6767124,3.545401 0 0 1 -3.676782,-3.54552 3.6767124,3.545401 0 0 1 0.0925,-0.74259 z" />
    <ellipse
       style="fill:none;fill-opacity:1;stroke:#000000;stroke-width:0.765;stroke-miterlimit:4;stroke-dasharray:none"
       id="path846-1-2-7-3"
       cx="0.4451834"
       cy="62.003712"
       rx="3.6767125"
       ry="3.5454011" />
    <ellipse
       style="fill:none;fill-opacity:1;stroke:#000000;stroke-width:0.765;stroke-miterlimit:4;stroke-dasharray:none"
       id="path846-1-2-5-2"
       cx="72.277328"
       cy="95.599625"
       rx="3.6767125"
       ry="3.5454011" />
    <ellipse
       style="fill:none;fill-opacity:1;stroke:#000000;stroke-width:0.765;stroke-miterlimit:4;stroke-dasharray:none"
       id="path846-1-2-72-7"
       cx="71.90609"
       cy="62.374943"
       rx="3.6767125"
       ry="3.5454011" />
    <ellipse
       style="fill:none;fill-opacity:1;stroke:#000000;stroke-width:0.765;stroke-miterlimit:4;stroke-dasharray:none"
       id="path846-1-2-0-7"
       cx="36.268436"
       cy="62.003712"
       rx="3.6767125"
       ry="3.5454011" />
    <ellipse
       style="fill:none;fill-opacity:1;stroke:#000000;stroke-width:0.765;stroke-miterlimit:4;stroke-dasharray:none"
       id="path846-1-2-01-7"
       cx="36.268436"
       cy="95.228409"
       rx="3.6767125"
       ry="3.5454011" />
    <ellipse
       style="fill:none;fill-opacity:1;stroke:#000000;stroke-width:0.765;stroke-miterlimit:4;stroke-dasharray:none"
       id="path846-1-2-1-9"
       cx="0.25957549"
       cy="95.228394"
       rx="3.6767125"
       ry="3.5454011" />
    <path
       id="rect3975-0"
       style="fill:none;fill-opacity:1;stroke:#000000;stroke-width:0.765;stroke-miterlimit:4;stroke-dasharray:none"
       d="m 147.96094,152.28915 a 3.6767124,3.545401 0 0 1 0.047,0.55707 3.6767124,3.545401 0 0 1 -3.67678,3.54553 3.6767124,3.545401 0 0 1 -0.18552,-0.0139 v 25.96896 a 3.6767124,3.545401 0 0 1 0.18552,-0.007 3.6767124,3.545401 0 0 1 3.67678,3.545 3.6767124,3.545401 0 0 1 -0.047,0.55707 h 28.56363 a 3.6767124,3.545401 0 0 1 -0.047,-0.55707 3.6767124,3.545401 0 0 1 3.67678,-3.545 v -26.13382 a 3.6767124,3.545401 0 0 1 -3.67678,-3.54552 3.6767124,3.545401 0 0 1 0.0227,-0.37155 z" />
    <path
       id="rect3975-1-5"
       style="fill:none;fill-opacity:1;stroke:#000000;stroke-width:0.765;stroke-miterlimit:4;stroke-dasharray:none"
       d="m 183.81095,152.28915 a 3.6767124,3.545401 0 0 1 0.0202,0.37155 3.6767124,3.545401 0 0 1 -3.67677,3.54552 v 26.13381 a 3.6767124,3.545401 0 0 1 3.67677,3.545 3.6767124,3.545401 0 0 1 -0.0465,0.55708 h 28.72487 a 3.6767124,3.545401 0 0 1 -0.0227,-0.37104 3.6767124,3.545401 0 0 1 3.67678,-3.54552 v -25.97671 a 3.6767124,3.545401 0 0 1 -0.37156,0.0284 3.6767124,3.545401 0 0 1 -3.67678,-3.54552 3.6767124,3.545401 0 0 1 0.0925,-0.74259 z" />
    <ellipse
       style="fill:#b25bd8;fill-opacity:1;stroke:#000000;stroke-width:0.765;stroke-miterlimit:4;stroke-dasharray:none;stroke-opacity:1"
       id="path846-1-2-7-8"
       cx="144.33118"
       cy="152.66058"
       rx="3.6767125"
       ry="3.5454011" />
    <ellipse
       style="fill:none;fill-opacity:1;stroke:#000000;stroke-width:0.765;stroke-miterlimit:4;stroke-dasharray:none"
       id="path846-1-2-5-6"
       cx="216.16333"
       cy="186.2565"
       rx="3.6767125"
       ry="3.5454011" />
    <ellipse
       style="fill:none;fill-opacity:1;stroke:#000000;stroke-width:0.765;stroke-miterlimit:4;stroke-dasharray:none"
       id="path846-1-2-72-3"
       cx="215.7921"
       cy="153.03181"
       rx="3.6767125"
       ry="3.5454011" />
    <ellipse
       style="fill:none;fill-opacity:1;stroke:#000000;stroke-width:0.765;stroke-miterlimit:4;stroke-dasharray:none"
       id="path846-1-2-0-4"
       cx="180.15445"
       cy="152.66058"
       rx="3.6767125"
       ry="3.5454011" />
    <ellipse
       style="fill:none;fill-opacity:1;stroke:#c70000;stroke-width:0.765;stroke-miterlimit:4;stroke-dasharray:none;stroke-opacity:1"
       id="path846-1-2-01-9"
       cx="180.15445"
       cy="185.88528"
       rx="3.6767125"
       ry="3.5454011" />
    <ellipse
       style="fill:none;fill-opacity:1;stroke:#b70000;stroke-width:0.765;stroke-miterlimit:4;stroke-dasharray:none;stroke-opacity:1"
       id="path846-1-2-1-4"
       cx="144.14557"
       cy="185.88527"
       rx="3.6767125"
       ry="3.5454011" />
    <path
       id="rect3975-4-8"
       style="fill:none;fill-opacity:1;stroke:#000000;stroke-width:0.765;stroke-miterlimit:4;stroke-dasharray:none"
       d="m 220.69182,203.08555 a 3.6767124,3.545401 0 0 1 0.047,0.55707 3.6767124,3.545401 0 0 1 -3.67677,3.54553 3.6767124,3.545401 0 0 1 -0.18552,-0.0139 v 25.96896 a 3.6767124,3.545401 0 0 1 0.18552,-0.007 3.6767124,3.545401 0 0 1 3.67677,3.545 3.6767124,3.545401 0 0 1 -0.047,0.55707 h 28.56364 a 3.6767124,3.545401 0 0 1 -0.047,-0.55707 3.6767124,3.545401 0 0 1 3.67678,-3.545 v -26.13382 a 3.6767124,3.545401 0 0 1 -3.67678,-3.54552 3.6767124,3.545401 0 0 1 0.0227,-0.37155 z" />
    <path
       id="rect3975-1-6-1"
       style="fill:none;fill-opacity:1;stroke:#000000;stroke-width:0.765;stroke-miterlimit:4;stroke-dasharray:none"
       d="m 256.54183,203.08555 a 3.6767124,3.545401 0 0 1 0.0202,0.37155 3.6767124,3.545401 0 0 1 -3.67677,3.54552 v 26.13381 a 3.6767124,3.545401 0 0 1 3.67677,3.545 3.6767124,3.545401 0 0 1 -0.0465,0.55708 h 28.72488 a 3.6767124,3.545401 0 0 1 -0.0227,-0.37104 3.6767124,3.545401 0 0 1 3.67677,-3.54552 v -25.97671 a 3.6767124,3.545401 0 0 1 -0.37155,0.0284 3.6767124,3.545401 0 0 1 -3.67678,-3.54552 3.6767124,3.545401 0 0 1 0.0925,-0.74259 z" />
    <ellipse
       style="fill:#b25bd8;fill-opacity:1;stroke:#000000;stroke-width:0.765;stroke-miterlimit:4;stroke-dasharray:none"
       id="path846-1-2-7-3-1"
       cx="217.06204"
       cy="203.45699"
       rx="3.6767125"
       ry="3.5454011" />
    <ellipse
       style="fill:none;fill-opacity:1;stroke:#000000;stroke-width:0.765;stroke-miterlimit:4;stroke-dasharray:none"
       id="path846-1-2-5-2-4"
       cx="288.89423"
       cy="237.0529"
       rx="3.6767125"
       ry="3.5454011" />
    <ellipse
       style="fill:none;fill-opacity:1;stroke:#000000;stroke-width:0.765;stroke-miterlimit:4;stroke-dasharray:none"
       id="path846-1-2-72-7-9"
       cx="288.52298"
       cy="203.82822"
       rx="3.6767125"
       ry="3.5454011" />
    <ellipse
       style="fill:none;fill-opacity:1;stroke:#000000;stroke-width:0.765;stroke-miterlimit:4;stroke-dasharray:none"
       id="path846-1-2-0-7-6"
       cx="252.8853"
       cy="203.45699"
       rx="3.6767125"
       ry="3.5454011" />
    <ellipse
       style="fill:#b25bd8;fill-opacity:1;stroke:#b70000;stroke-width:0.765;stroke-miterlimit:4;stroke-dasharray:none;stroke-opacity:1"
       id="path846-1-2-01-7-3"
       cx="252.8853"
       cy="236.68169"
       rx="3.6767125"
       ry="3.5454011" />
    <ellipse
       style="fill:#b25bd8;fill-opacity:1;stroke:#b70000;stroke-width:0.765;stroke-miterlimit:4;stroke-dasharray:none;stroke-opacity:1"
       id="path846-1-2-1-9-6"
       cx="216.87643"
       cy="236.68167"
       rx="3.6767125"
       ry="3.5454011" />
    <text
       xml:space="preserve"
       style="font-style:normal;font-weight:normal;font-size:7.05556px;line-height:1.25;font-family:sans-serif;fill:#000000;fill-opacity:1;stroke:none;stroke-width:0.264583"
       x="151.49811"
       y="127.4138"
       id="text13074"><tspan
         sodipodi:role="line"
         id="tspan13072"
         style="font-size:7.05556px;stroke-width:0.264583"
         x="151.49811"
         y="127.4138">First move</tspan></text>
    <text
       xml:space="preserve"
       style="font-style:normal;font-weight:normal;font-size:7.05556px;line-height:1.25;font-family:sans-serif;fill:#000000;fill-opacity:1;stroke:none;stroke-width:0.264583"
       x="78.556091"
       y="81.095924"
       id="text13074-2"><tspan
         sodipodi:role="line"
         id="tspan13072-7"
         style="font-size:7.05556px;stroke-width:0.264583"
         x="78.556091"
         y="81.095924">Game start</tspan></text>
    <text
       xml:space="preserve"
       style="font-style:normal;font-weight:normal;font-size:7.05556px;line-height:1.25;font-family:sans-serif;fill:#000000;fill-opacity:1;stroke:none;stroke-width:0.264583"
       x="226.47025"
       y="173.64015"
       id="text20337"><tspan
         sodipodi:role="line"
         id="tspan20335"
         style="font-size:7.05556px;stroke-width:0.264583"
         x="226.47025"
         y="173.64015">PC move</tspan></text>
    <text
       xml:space="preserve"
       style="font-style:normal;font-weight:normal;font-size:7.05556px;line-height:1.25;font-family:sans-serif;fill:#000000;fill-opacity:1;stroke:none;stroke-width:0.264583"
       x="297.1694"
       y="222.58569"
       id="text23523"><tspan
         sodipodi:role="line"
         id="tspan23521"
         style="font-size:7.05556px;stroke-width:0.264583"
         x="297.1694"
         y="222.58569">Second move</tspan></text>
    <text
       xml:space="preserve"
       transform="scale(0.26458333)"
       id="text25655"
       style="fill:black;fill-opacity:1;line-height:1.25;stroke:none;font-family:sans-serif;font-style:normal;font-weight:normal;font-size:40px;white-space:pre;shape-inside:url(#rect25657)" />
  </g>
</svg>
